<svg width="24" height="26" viewBox="0 0 24 26" fill="none" xmlns="http://www.w3.org/2000/svg">
<path d="M22.9565 25.0435H17.7391C17.1621 25.0435 16.6957 24.576 16.6957 24V1.04348C16.6957 0.467478 17.1621 0 17.7391 0H22.9565C23.5336 0 24 0.467478 24 1.04348V24C24 24.576 23.5336 25.0435 22.9565 25.0435ZM21.913 2.08696H18.7826V22.9565H21.913V2.08696ZM14.6087 25.0435H9.3913C8.81426 25.0435 8.34783 24.576 8.34783 24V13.5652C8.34783 12.9892 8.81426 12.5217 9.3913 12.5217H14.6087C15.1857 12.5217 15.6522 12.9892 15.6522 13.5652V24C15.6522 24.576 15.1857 25.0435 14.6087 25.0435ZM13.5652 14.6087H10.4348V22.9565H13.5652V14.6087ZM6.26087 25.0435H1.04348C0.466435 25.0435 0 24.576 0 24V8.34783C0 7.77183 0.466435 7.30435 1.04348 7.30435H6.26087C6.83791 7.30435 7.30435 7.77183 7.30435 8.34783V24C7.30435 24.576 6.83791 25.0435 6.26087 25.0435ZM5.21739 9.3913H2.08696V22.9565H5.21739V9.3913Z" fill="#D9DBE9"/>
</svg>
