<svg width="24" height="24" viewBox="0 0 24 24" fill="none" xmlns="http://www.w3.org/2000/svg">
<circle cx="7" cy="6" r="3" stroke="#D9DBE9" stroke-width="2"/>
<circle cx="16.5" cy="8.5" r="2.5" stroke="#D9DBE9" stroke-width="2"/>
<path d="M1 18C1 14.6863 3.68629 12 7 12V12C10.3137 12 13 14.6863 13 18V20H1V18Z" stroke="#D9DBE9" stroke-width="2"/>
<path d="M12.5374 15.6858L11.6149 16.0718L11.3613 15.4656L11.8171 14.9922L12.5374 15.6858ZM13 20L13 21L12 21V20H13ZM13.3571 20L13.3571 19H13.3571V20ZM22 20H23V21H22V20ZM12 18C12 17.3146 11.8627 16.6638 11.6149 16.0718L13.4599 15.2998C13.8081 16.132 14 17.0449 14 18H12ZM12 20V18H14V20H12ZM13 19L13.3571 19L13.3571 21L13 21L13 19ZM13.3571 19H22V21H13.3571V19ZM21 20V19.5H23V20H21ZM21 19.5C21 17.0147 18.9853 15 16.5 15V13C20.0899 13 23 15.9101 23 19.5H21ZM16.5 15C15.2263 15 14.0777 15.5278 13.2578 16.3794L11.8171 14.9922C12.9983 13.7653 14.6606 13 16.5 13V15Z" fill="#D9DBE9"/>
</svg>
