<svg width="19" height="20" viewBox="0 0 19 20" fill="none" xmlns="http://www.w3.org/2000/svg">
<path fill-rule="evenodd" clip-rule="evenodd" d="M16.7966 10.0058C16.7966 9.57226 16.7678 9.18823 16.7016 8.83356L16.1357 8.94007L16.5128 9.3742L18.2832 7.83865L17.9055 7.40395L18.2245 7.88298C18.5901 7.63944 18.7116 7.1702 18.5412 6.77177C18.179 5.65768 17.5307 4.54186 16.697 3.59186C16.572 3.43845 16.4001 3.33029 16.2077 3.28401C16.0153 3.23773 15.813 3.25587 15.6319 3.33565L13.4526 4.08817L14.0025 4.18432C13.4042 3.69796 12.7336 3.30808 12.015 3.02877L12.3719 3.45483L11.9246 1.1518C11.8722 0.779862 11.544 0.452832 11.1427 0.395256C9.92353 0.150179 8.66759 0.152136 7.4492 0.401014C7.08072 0.452832 6.75254 0.779862 6.69496 1.18232L6.25163 3.45656L6.60975 3.0305C5.87278 3.31377 5.18187 3.71277 4.61187 4.19065L5.17036 4.08701L2.95369 3.32126C2.60478 3.16926 2.18505 3.2821 1.91733 3.60338C1.09399 4.54186 0.445113 5.6571 0.0651132 6.82013C-0.0874626 7.1702 0.0340223 7.63944 0.399053 7.88298L0.718598 7.40395L0.341477 7.83865L2.11136 9.3742L2.48848 8.9395L1.92423 8.83241C1.85687 9.18765 1.82808 9.5711 1.82808 10.0052C1.82808 10.4393 1.85687 10.8228 1.92366 11.178L2.4879 11.0715L2.11136 10.6368L0.341477 12.1724L0.718598 12.6071L0.399628 12.1275C0.0340223 12.371 -0.0874626 12.8403 0.0829617 13.2387C0.445689 14.3533 1.09342 15.4692 1.92826 16.4197C2.05335 16.5731 2.2253 16.6811 2.41771 16.7273C2.61012 16.7735 2.81237 16.7552 2.99342 16.6754L5.17036 15.9246L4.61187 15.821C5.18187 16.2988 5.87105 16.6978 6.60802 16.9828L6.2499 16.5568L6.69784 18.8598C6.75081 19.2329 7.07784 19.5599 7.48087 19.6175C8.10039 19.7326 8.70493 19.7943 9.31005 19.7943C9.9146 19.7943 10.5203 19.7338 11.164 19.6146C11.5428 19.5605 11.8699 19.2335 11.9274 18.8316L12.3696 16.5573L12.0127 16.9834C12.7309 16.7036 13.4014 16.314 14.0002 15.8284L13.4503 15.9246L15.6681 16.6915C16.0171 16.8429 16.4368 16.7301 16.7045 16.4094C17.5278 15.4709 18.1773 14.3539 18.5573 13.192C18.7099 12.8408 18.5884 12.3722 18.2234 12.1286L17.9032 12.6076L18.2804 12.1724L16.5099 10.6368L16.1328 11.0715L16.6987 11.178C16.7655 10.8228 16.7937 10.4393 16.7937 10.0058H16.7966ZM15.5092 11.2909L15.7585 11.5074L17.5284 13.0423L17.586 13.0867C17.5368 13.0564 17.4996 13.0101 17.4807 12.9555C17.4618 12.9009 17.4624 12.8415 17.4824 12.7873C17.1305 13.8465 16.5689 14.824 15.8311 15.6615C15.8725 15.6114 15.9923 15.5791 16.0856 15.6189L13.8286 14.8358L13.5275 14.7322L13.2799 14.9326C12.7657 15.3471 12.1975 15.6776 11.5987 15.9096L11.3027 16.0248L11.2423 16.3368L10.7944 18.6399C10.8047 18.565 10.875 18.493 10.9797 18.4786C10.43 18.5848 9.87165 18.6399 9.31178 18.6433C8.78093 18.6433 8.24548 18.5898 7.66799 18.4821C7.7486 18.4936 7.81999 18.565 7.83496 18.6687L7.38242 16.3368L7.32139 16.0259L7.02487 15.9108C6.40305 15.669 5.82384 15.335 5.35402 14.94L5.10414 14.7299L4.79554 14.837L2.57772 15.6039C2.63184 15.5791 2.75217 15.6114 2.80226 15.673C2.05954 14.8266 1.48954 13.8455 1.15963 12.8345C1.18266 12.884 1.14926 13.013 1.03872 13.0878L1.0963 13.0429L2.86617 11.508L3.11548 11.2915L3.05445 10.9667C3.00011 10.6498 2.97506 10.3285 2.9796 10.007C2.9796 9.63847 3.00263 9.3241 3.05445 9.04717L3.11548 8.72244L2.86617 8.50538L1.0963 6.97041L1.03872 6.92607C1.14926 7.00092 1.18266 7.12932 1.1412 7.22662C1.49373 6.16728 2.05568 5.18965 2.79363 4.35186C2.75333 4.40138 2.63242 4.43362 2.5403 4.39389L4.79611 5.17692L5.10472 5.28344L5.3546 5.07329C5.82442 4.67889 6.4042 4.3438 7.02602 4.10313L7.32311 3.98798L7.38414 3.67592L7.83151 1.37289C7.82114 1.44774 7.74975 1.51971 7.64611 1.5341C8.75502 1.30956 9.87084 1.30956 10.9469 1.52835C10.8767 1.51971 10.8059 1.44774 10.7915 1.3441L11.2434 3.67592L11.3045 3.98856L11.6016 4.10256C12.2004 4.33459 12.7681 4.66507 13.2816 5.07962L13.5292 5.28113L13.8315 5.17577L16.0481 4.40829C15.9946 4.43247 15.8743 4.40023 15.8236 4.3392C16.5663 5.18556 17.1363 6.16607 17.4668 7.17768C17.4438 7.12759 17.4766 6.9992 17.5877 6.92435L17.5301 6.96868L15.7603 8.50365L15.511 8.72014L15.5714 9.04429C15.6232 9.32065 15.6463 9.63616 15.6463 10.0046C15.6463 10.3731 15.6232 10.6881 15.5714 10.965L15.511 11.2897L15.5092 11.2909ZM6.43299 10.007C6.43299 8.41786 7.71866 7.12817 9.31178 7.12817C10.8917 7.12817 12.1906 8.4265 12.1906 10.007C12.1906 10.7705 11.8873 11.5027 11.3474 12.0426C10.8075 12.5824 10.0753 12.8857 9.31178 12.8857C7.71117 12.8857 6.43299 11.6076 6.43299 10.007ZM13.3421 10.007C13.3421 7.79029 11.5284 5.97665 9.31178 5.97665C7.08187 5.97665 5.28148 7.78338 5.28148 10.007C5.28148 12.2432 7.07496 14.0373 9.31178 14.0373C10.3807 14.0373 11.4058 13.6126 12.1616 12.8568C12.9175 12.101 13.3421 11.0759 13.3421 10.007V10.007Z" fill="#D9DBE9"/>
</svg>
