<svg width="33" height="36" viewBox="0 0 33 36" fill="none" xmlns="http://www.w3.org/2000/svg">
<path d="M29.9027 20.233C29.7934 23.6947 28.5831 27.0313 26.4476 29.7579C24.3121 32.4846 21.3627 34.4591 18.0281 35.3946C14.6935 36.3302 11.1474 36.1779 7.90526 34.9599C4.66311 33.7419 1.89388 31.5218 0 28.6221L0.00471848 28.617L0.0253053 28.6067C0.030452 28.6067 0.0304513 28.6016 0.035598 28.6016C0.0407447 28.5913 0.0458925 28.5913 0.0510392 28.5861L5.23718 25.1979L27.2585 10.8026V10.8078C27.3147 10.8897 27.3658 10.9716 27.4172 11.0587C27.5403 11.2482 27.6531 11.4447 27.7655 11.6432C27.8731 11.8277 27.9756 12.0121 28.073 12.2008C28.2218 12.4774 28.3604 12.7644 28.483 13.0517C28.5448 13.1795 28.6013 13.3082 28.6524 13.4377C28.7344 13.6273 28.806 13.8117 28.8776 14.0064C28.9342 14.145 28.9801 14.2882 29.0264 14.4319C29.0693 14.5395 29.1032 14.6463 29.1392 14.7596C29.2773 15.1953 29.4004 15.6362 29.5029 16.087C29.8171 17.4455 29.9515 18.8395 29.9027 20.233Z" fill="url(#paint0_linear_408_18)"/>
<g style="mix-blend-mode:multiply" opacity="0.16">
<g style="mix-blend-mode:multiply" opacity="0.16">
<path d="M29.5029 16.087L0 28.6221L27.2585 10.8035C28.3137 12.4179 29.0736 14.2068 29.5029 16.087Z" fill="black"/>
</g>
</g>
<path d="M32.4984 7.37606C32.5 7.37842 32.4997 7.38153 32.4977 7.38353V7.38353C32.4966 7.38465 32.495 7.38522 32.4936 7.38593C32.4917 7.38687 32.4897 7.3887 32.4875 7.39051C32.4812 7.39561 32.4733 7.39993 32.4673 7.40545C32.4637 7.40879 32.4597 7.41162 32.4552 7.41384C32.4519 7.41554 32.4484 7.41717 32.4453 7.41924L27.2605 10.8086L5.49179 25.0334C5.35195 25.1247 5.16354 25.0861 5.07998 24.9414V24.9414C2.82993 21.3767 2.05905 17.0748 2.93122 12.9505C3.04592 12.4058 3.18792 11.8671 3.35668 11.3366C3.36067 11.3283 3.36411 11.3197 3.36698 11.3109C3.37145 11.2863 3.37834 11.2621 3.38756 11.2389C4.32651 8.35295 6.05369 5.78712 8.37403 3.83112C10.6944 1.87513 13.5154 0.606925 16.5186 0.169749C19.5217 -0.267427 22.5872 0.143847 25.369 1.35711C28.1507 2.57038 30.5377 4.53729 32.2605 7.0357C32.2677 7.04389 32.2744 7.05251 32.2806 7.06143C32.3569 7.1635 32.4285 7.26976 32.4984 7.37606Z" fill="url(#paint1_linear_408_18)"/>
<g style="mix-blend-mode:multiply" opacity="0.25">
<g style="mix-blend-mode:multiply" opacity="0.25">
<path d="M27.417 11.0595C25.9665 12.0846 24.2805 13.2469 22.4612 14.4778C21.5176 15.1134 20.55 15.7794 19.5507 16.4357C18.5514 17.0919 17.5414 17.7626 16.5322 18.4291C15.5123 19.0901 14.4924 19.7463 13.4871 20.3969C12.4826 21.0376 11.4884 21.6681 10.5303 22.2776C8.6033 23.4922 6.79896 24.6094 5.23609 25.5474C3.68352 26.4953 2.36254 27.2488 1.449 27.7918C0.644406 28.2636 0.137029 28.5454 0.024231 28.6067C0.0303206 28.5972 0.039361 28.59 0.0499632 28.5861L27.2575 10.8035C27.3145 10.8854 27.3655 10.9724 27.417 11.0595Z" fill="black"/>
</g>
</g>
<g style="mix-blend-mode:screen" opacity="0.7">
<g style="mix-blend-mode:screen" opacity="0.7">
<path d="M32.4754 7.39539C32.4692 7.40478 32.4602 7.41198 32.4497 7.41597L5.2383 25.1986C5.18211 25.1128 5.13069 25.0296 5.07965 24.9413C6.53011 23.9214 8.22123 22.7539 10.0402 21.523C10.9837 20.8874 11.9569 20.2316 12.951 19.5651C13.9452 18.9094 14.96 18.2382 15.9696 17.5717C16.9895 16.9107 18.0094 16.2545 19.0147 15.6039C20.02 14.9533 21.0134 14.3331 21.9715 13.7232C23.8933 12.5086 25.7028 11.3914 27.2652 10.4482C28.8183 9.50038 30.1388 8.75196 31.0528 8.20899C31.8552 7.7385 32.3626 7.45672 32.4754 7.39539Z" fill="white"/>
</g>
</g>
<g style="mix-blend-mode:screen" opacity="0.25">
<g style="mix-blend-mode:screen" opacity="0.25">
<path d="M27.8631 19.6691C27.8667 20.6647 27.7637 21.6578 27.5556 22.6314C27.1763 24.4625 26.4391 26.2007 25.3863 27.7461C24.3335 29.2916 22.9859 30.6139 21.4208 31.6371C19.8556 32.6604 18.1038 33.3645 16.2658 33.709C14.4279 34.0534 12.54 34.0315 10.7105 33.6445C7.70337 33.0267 4.98052 31.443 2.9566 29.1347L3.10543 29.0373L27.8631 19.6691Z" fill="white"/>
</g>
</g>
<g style="mix-blend-mode:screen" opacity="0.25">
<g style="mix-blend-mode:screen" opacity="0.25">
<path d="M29.544 6.86753L29.2519 7.0571L4.89911 13.5604C4.9094 13.499 4.91927 13.4317 4.93471 13.3708C5.31526 11.5393 6.05364 9.80106 7.10751 8.25559C8.16133 6.71013 9.50989 5.38791 11.0758 4.36475C12.6418 3.34156 14.3943 2.63759 16.2329 2.29319C18.0715 1.94879 19.96 1.97074 21.7901 2.35776C24.7963 2.97799 27.5184 4.56122 29.544 6.86753Z" fill="white"/>
</g>
</g>
<g style="mix-blend-mode:multiply" opacity="0.16">
<g style="mix-blend-mode:multiply" opacity="0.16">
<path d="M29.9027 20.2332C29.7934 23.6948 28.5831 27.0314 26.4476 29.758C24.3121 32.4847 21.3627 34.4592 18.0281 35.3948C14.6935 36.3303 11.1474 36.178 7.90526 34.96C4.66311 33.7421 1.89388 31.5219 0 28.6222C0.518357 29.305 1.07796 29.9554 1.67567 30.5698C2.87691 31.7669 4.24791 32.7806 5.74455 33.5781C7.2268 34.3687 8.8224 34.9253 10.4748 35.228L11.7151 35.4021C12.1299 35.4742 12.5502 35.4536 12.9653 35.4841L13.5907 35.5098L14.216 35.4793C14.6308 35.47 15.0448 35.4374 15.4559 35.3816L16.6911 35.192L17.9006 34.8849C18.3106 34.7991 18.6949 34.6233 19.0895 34.4989C19.4849 34.368 19.8703 34.2088 20.2428 34.0224C21.0011 33.6779 21.7323 33.2764 22.4301 32.8215L23.4547 32.0988C23.7777 31.8376 24.0903 31.561 24.4081 31.2891C24.7221 31.0128 25.0215 30.7203 25.3049 30.4129L25.7458 29.9621L26.1353 29.4753C26.6679 28.8251 27.1541 28.1384 27.5905 27.4201L28.1849 26.3028C28.3951 25.934 28.5182 25.5342 28.6923 25.15C28.7742 24.9552 28.8639 24.764 28.9385 24.5658L29.1281 23.9508C29.246 23.5408 29.4047 23.1256 29.4918 22.7207C29.6804 21.9009 29.8176 21.0701 29.9027 20.2332Z" fill="black"/>
</g>
</g>
<g style="mix-blend-mode:screen" opacity="0.7">
<g style="mix-blend-mode:screen" opacity="0.7">
<path d="M32.2586 7.0365C32.2157 6.98546 32.151 6.90783 32.0639 6.80618C31.9048 6.59603 31.635 6.3091 31.3104 5.93511C30.3807 4.94266 29.3385 4.06205 28.2048 3.31117C27.4574 2.81108 26.6708 2.37232 25.8527 1.99919C24.9445 1.59183 24.0033 1.26254 23.0392 1.01489C22.793 0.948414 22.5164 0.897376 22.2548 0.835616C22.0142 0.779431 21.7375 0.758849 21.4828 0.712957C21.2164 0.676931 20.9548 0.640904 20.6885 0.600159C20.417 0.569279 20.1506 0.564128 19.8787 0.543541C19.6072 0.533248 19.3357 0.507948 19.0638 0.500657L18.2391 0.531108C17.6896 0.546647 17.1418 0.598075 16.599 0.68508C16.3263 0.713339 16.0558 0.759475 15.7892 0.823182L14.9795 0.994738C14.4515 1.12769 13.9292 1.31255 13.4115 1.47124C12.9144 1.68568 12.4019 1.86067 11.9254 2.09656C11.6895 2.2145 11.4536 2.33716 11.2181 2.4551L10.8643 2.63438L10.5366 2.8394C10.1009 3.12161 9.65483 3.36736 9.26025 3.68002C8.48782 4.2392 7.76596 4.86507 7.10294 5.55039C6.7916 5.85375 6.49889 6.17559 6.22628 6.51411C5.96509 6.84178 5.71419 7.15959 5.4783 7.45767C5.26385 7.78062 5.06313 8.07784 4.86842 8.36477C4.49443 8.93391 4.24308 9.47688 3.99218 9.90877C3.63835 10.7082 3.41833 11.2053 3.36686 11.313C3.36399 11.3218 3.36055 11.3304 3.35657 11.3387C3.35657 11.3387 3.36686 11.3027 3.38745 11.2409C4.32639 8.35503 6.05357 5.7892 8.37391 3.8332C10.6942 1.87721 13.5153 0.608999 16.5184 0.171824C19.5216 -0.265352 22.5872 0.145921 25.3689 1.35919C28.1505 2.57246 30.5376 4.53937 32.2603 7.03778L32.2586 7.0365Z" fill="white"/>
</g>
</g>
<defs>
<linearGradient id="paint0_linear_408_18" x1="9.84119" y1="34.8407" x2="20.9353" y2="9.19779" gradientUnits="userSpaceOnUse">
<stop stop-color="white"/>
<stop offset="1" stop-color="#B1C1C9"/>
</linearGradient>
<linearGradient id="paint1_linear_408_18" x1="17.541" y1="0" x2="17.541" y2="25.1988" gradientUnits="userSpaceOnUse">
<stop stop-color="#72FFB3"/>
<stop offset="1" stop-color="#2FC875"/>
</linearGradient>
</defs>
</svg>
