<svg width="111" height="35" viewBox="0 0 111 35" fill="none" xmlns="http://www.w3.org/2000/svg">
<path d="M50.776 26.24C49.416 26.24 48.16 26.072 47.008 25.736C45.872 25.384 44.896 24.904 44.08 24.296L45.04 21.872C45.584 22.256 46.152 22.584 46.744 22.856C47.336 23.112 47.968 23.312 48.64 23.456C49.312 23.584 50.024 23.648 50.776 23.648C52.04 23.648 52.952 23.44 53.512 23.024C54.072 22.608 54.352 22.064 54.352 21.392C54.352 20.8 54.16 20.352 53.776 20.048C53.392 19.728 52.704 19.464 51.712 19.256L49 18.704C47.448 18.384 46.288 17.848 45.52 17.096C44.752 16.344 44.368 15.336 44.368 14.072C44.368 13.016 44.648 12.096 45.208 11.312C45.768 10.528 46.552 9.92 47.56 9.488C48.568 9.056 49.744 8.84 51.088 8.84C52.288 8.84 53.4 9.016 54.424 9.368C55.448 9.704 56.304 10.192 56.992 10.832L56.032 13.136C55.344 12.56 54.592 12.136 53.776 11.864C52.96 11.576 52.048 11.432 51.04 11.432C49.904 11.432 49.016 11.656 48.376 12.104C47.752 12.536 47.44 13.136 47.44 13.904C47.44 14.496 47.632 14.968 48.016 15.32C48.416 15.672 49.088 15.944 50.032 16.136L52.72 16.664C54.32 16.984 55.504 17.512 56.272 18.248C57.04 18.968 57.424 19.944 57.424 21.176C57.424 22.184 57.152 23.072 56.608 23.84C56.064 24.592 55.296 25.184 54.304 25.616C53.312 26.032 52.136 26.24 50.776 26.24ZM61.1008 26V8.336H64.1008V26H61.1008ZM68.3586 26V13.88H71.3586V26H68.3586ZM68.1906 11.6V8.672H71.5266V11.6H68.1906ZM81.1844 26.24C79.9364 26.24 78.8404 25.984 77.8964 25.472C76.9684 24.96 76.2484 24.232 75.7364 23.288C75.2244 22.328 74.9684 21.192 74.9684 19.88C74.9684 18.568 75.2244 17.448 75.7364 16.52C76.2644 15.592 76.9924 14.88 77.9204 14.384C78.8484 13.888 79.9364 13.64 81.1844 13.64C81.9844 13.64 82.7604 13.768 83.5124 14.024C84.2804 14.264 84.9044 14.616 85.3844 15.08L84.4724 17.168C84.0404 16.768 83.5524 16.472 83.0084 16.28C82.4804 16.072 81.9604 15.968 81.4484 15.968C80.3764 15.968 79.5364 16.304 78.9284 16.976C78.3364 17.648 78.0404 18.624 78.0404 19.904C78.0404 21.184 78.3364 22.168 78.9284 22.856C79.5364 23.544 80.3764 23.888 81.4484 23.888C81.9444 23.888 82.4564 23.792 82.9844 23.6C83.5284 23.408 84.0244 23.112 84.4724 22.712L85.3844 24.776C84.8884 25.24 84.2564 25.6 83.4884 25.856C82.7364 26.112 81.9684 26.24 81.1844 26.24ZM94.3318 26.24C92.2998 26.24 90.7078 25.68 89.5558 24.56C88.4038 23.44 87.8278 21.904 87.8278 19.952C87.8278 18.688 88.0758 17.584 88.5718 16.64C89.0678 15.696 89.7558 14.96 90.6358 14.432C91.5318 13.904 92.5718 13.64 93.7558 13.64C94.9238 13.64 95.8998 13.888 96.6838 14.384C97.4678 14.88 98.0598 15.576 98.4598 16.472C98.8758 17.368 99.0838 18.416 99.0838 19.616V20.408H90.2518V18.824H96.9478L96.5398 19.16C96.5398 18.04 96.2998 17.184 95.8198 16.592C95.3558 16 94.6758 15.704 93.7798 15.704C92.7878 15.704 92.0198 16.056 91.4758 16.76C90.9478 17.464 90.6838 18.448 90.6838 19.712V20.024C90.6838 21.336 91.0038 22.32 91.6438 22.976C92.2998 23.616 93.2198 23.936 94.4038 23.936C95.0918 23.936 95.7318 23.848 96.3238 23.672C96.9318 23.48 97.5078 23.176 98.0518 22.76L98.9398 24.776C98.3638 25.24 97.6758 25.6 96.8758 25.856C96.0758 26.112 95.2278 26.24 94.3318 26.24Z" fill="#1E1E1E"/>
<path d="M32.2018 19.6711C32.0841 23.0366 30.7808 26.2805 28.4811 28.9314C26.1814 31.5823 23.0052 33.502 19.4142 34.4115C15.8232 35.3211 12.0045 35.173 8.51307 33.9889C5.02164 32.8047 2.03949 30.6463 0 27.8272L0.00508127 27.8222L0.027251 27.8122C0.0327934 27.8122 0.0327926 27.8072 0.038335 27.8072C0.0438774 27.7971 0.0494211 27.7971 0.0549635 27.7921L5.63985 24.498L29.3544 10.5026V10.5076C29.4149 10.5873 29.4698 10.6669 29.5253 10.7516C29.6578 10.9359 29.7793 11.1268 29.9003 11.3199C30.0162 11.4992 30.1266 11.6785 30.2315 11.862C30.3917 12.1309 30.5409 12.4099 30.673 12.6893C30.7395 12.8135 30.8003 12.9386 30.8554 13.0645C30.9437 13.2488 31.0208 13.4281 31.0979 13.6174C31.1589 13.7521 31.2083 13.8914 31.2582 14.0311C31.3044 14.1357 31.3409 14.2396 31.3797 14.3497C31.5284 14.7733 31.6609 15.202 31.7713 15.6402C32.1096 16.961 32.2544 18.3162 32.2018 19.6711Z" fill="url(#paint0_linear_202_3507)"/>
<g style="mix-blend-mode:multiply" opacity="0.16">
<g style="mix-blend-mode:multiply" opacity="0.16">
<path d="M31.7713 15.6398L0 27.8268L29.3544 10.5031C30.4906 12.0726 31.309 13.8118 31.7713 15.6398Z" fill="black"/>
</g>
</g>
<path d="M34.9969 7.17086C34.9987 7.17327 34.9983 7.17661 34.9961 7.17862V7.17862C34.995 7.1796 34.9936 7.18007 34.9922 7.18061C34.9901 7.18146 34.9879 7.18334 34.9854 7.1852C34.9784 7.19031 34.97 7.19461 34.9632 7.2001C34.9594 7.20323 34.9551 7.20588 34.9505 7.20797C34.9469 7.20958 34.9433 7.21112 34.94 7.21311L29.3564 10.5084L5.90244 24.3448C5.75447 24.4321 5.56315 24.3933 5.47056 24.2486V24.2486C3.04751 20.7829 2.21736 16.6005 3.15659 12.5908C3.27908 12.0656 3.43049 11.5462 3.61024 11.0345C3.61324 11.026 3.61705 11.0177 3.62073 11.0094V11.0094C3.62444 11.0011 3.62666 10.9922 3.62882 10.9833C3.63352 10.964 3.63994 10.945 3.64801 10.9267C4.65915 8.12092 6.51913 5.62636 9.01787 3.7247C11.5166 1.82304 14.5546 0.590066 17.7886 0.165034C21.0227 -0.259998 24.3239 0.139851 27.3195 1.31942C30.3151 2.49898 32.8856 4.41125 34.7409 6.84026C34.7486 6.84823 34.7559 6.85661 34.7626 6.86528C34.8446 6.96442 34.9217 7.06761 34.9969 7.17086Z" fill="url(#paint1_linear_202_3507)"/>
<g style="mix-blend-mode:multiply" opacity="0.25">
<g style="mix-blend-mode:multiply" opacity="0.25">
<path d="M29.525 10.752C27.963 11.7486 26.1474 12.8786 24.1882 14.0753C23.1721 14.6932 22.1301 15.3408 21.054 15.9788C19.9778 16.6168 18.8901 17.2689 17.8033 17.9169C16.705 18.5595 15.6067 19.1974 14.5241 19.83C13.4424 20.4529 12.3718 21.0659 11.34 21.6584C9.26482 22.8393 7.32174 23.9255 5.6387 24.8375C3.96677 25.759 2.54422 26.4916 1.56044 27.0195C0.693981 27.4782 0.147594 27.7521 0.026123 27.8117C0.0326809 27.8025 0.0424164 27.7955 0.0538338 27.7917L29.3532 10.5031C29.4147 10.5827 29.4696 10.6673 29.525 10.752Z" fill="black"/>
</g>
</g>
<g style="mix-blend-mode:screen" opacity="0.7">
<g style="mix-blend-mode:screen" opacity="0.7">
<path d="M34.9723 7.1897C34.9657 7.19883 34.956 7.20583 34.9447 7.20971L5.64106 24.4984C5.58056 24.415 5.52518 24.3341 5.47021 24.2482C7.0322 23.2566 8.85334 22.1216 10.8121 20.9249C11.8282 20.3069 12.8762 19.6694 13.9468 19.0214C15.0174 18.3838 16.1102 17.7313 17.1974 17.0833C18.2957 16.4407 19.3941 15.8028 20.4767 15.1702C21.5593 14.5377 22.629 13.9347 23.6608 13.3418C25.7304 12.1609 27.679 11.0747 29.3616 10.1577C31.034 9.23622 32.4561 8.50859 33.4403 7.9807C34.3045 7.52328 34.8509 7.24932 34.9723 7.1897Z" fill="white"/>
</g>
</g>
<g style="mix-blend-mode:screen" opacity="0.25">
<g style="mix-blend-mode:screen" opacity="0.25">
<path d="M30.0055 19.1229C30.0094 20.0909 29.8984 21.0564 29.6743 22.003C29.2659 23.7832 28.472 25.4731 27.3383 26.9756C26.2045 28.4781 24.7533 29.7637 23.0678 30.7585C21.3823 31.7534 19.4958 32.4379 17.5165 32.7728C15.5372 33.1077 13.5042 33.0864 11.5341 32.7101C8.29569 32.1095 5.36348 30.5698 3.18396 28.3256L3.34423 28.2309L30.0055 19.1229Z" fill="white"/>
</g>
</g>
<g style="mix-blend-mode:screen" opacity="0.25">
<g style="mix-blend-mode:screen" opacity="0.25">
<path d="M31.8156 6.67659L31.5011 6.86089L5.27588 13.1835C5.28696 13.1239 5.29759 13.0584 5.31421 12.9992C5.72403 11.2186 6.51918 9.52863 7.65407 8.02609C8.78893 6.52356 10.2412 5.23806 11.9275 4.24332C13.6139 3.24856 15.5011 2.56415 17.4811 2.22932C19.461 1.89448 21.4947 1.91582 23.4656 2.29209C26.7029 2.89509 29.6343 4.43434 31.8156 6.67659Z" fill="white"/>
</g>
</g>
<g style="mix-blend-mode:multiply" opacity="0.16">
<g style="mix-blend-mode:multiply" opacity="0.16">
<path d="M32.2018 19.671C32.0841 23.0365 30.7808 26.2804 28.4811 28.9313C26.1814 31.5821 23.0052 33.5019 19.4142 34.4114C15.8232 35.3209 12.0045 35.1729 8.51307 33.9888C5.02164 32.8046 2.03949 30.6462 0 27.827C0.558212 28.4908 1.16084 29.1231 1.80451 29.7205C3.0981 30.8843 4.57452 31.8698 6.18624 32.6452C7.78245 33.4138 9.50073 33.955 11.2802 34.2493L12.6159 34.4186C13.0625 34.4886 13.5151 34.4686 13.9622 34.4982L14.6356 34.5232L15.309 34.4936C15.7557 34.4846 16.2015 34.4528 16.6443 34.3986L17.9745 34.2143L19.2769 33.9157C19.7185 33.8323 20.1323 33.6614 20.5572 33.5404C20.983 33.4132 21.3981 33.2584 21.7992 33.0772C22.6158 32.7422 23.4033 32.3519 24.1547 31.9096L25.2581 31.207C25.6059 30.9531 25.9426 30.6841 26.2848 30.4198C26.6229 30.1512 26.9453 29.8668 27.2506 29.5679L27.7254 29.1297L28.1447 28.6564C28.7183 28.0243 29.2419 27.3566 29.7119 26.6582L30.352 25.572C30.5783 25.2134 30.7109 24.8248 30.8984 24.4512C30.9866 24.2619 31.0831 24.0759 31.1635 23.8833L31.3677 23.2853C31.4947 22.8867 31.6656 22.4831 31.7593 22.0894C31.9624 21.2924 32.1102 20.4846 32.2018 19.671Z" fill="black"/>
</g>
</g>
<g style="mix-blend-mode:screen" opacity="0.7">
<g style="mix-blend-mode:screen" opacity="0.7">
<path d="M34.7389 6.84116C34.6927 6.79154 34.623 6.71606 34.5292 6.61724C34.3578 6.41292 34.0673 6.13396 33.7177 5.77036C32.7166 4.80548 31.5942 3.94934 30.3733 3.21932C29.5685 2.73311 28.7215 2.30654 27.8404 1.94378C26.8624 1.54774 25.8488 1.22759 24.8106 0.986819C24.5455 0.922188 24.2476 0.872567 23.9659 0.812523C23.7067 0.757899 23.4088 0.737888 23.1345 0.693272C22.8477 0.658246 22.5659 0.62322 22.2791 0.583607C21.9868 0.553585 21.6999 0.548577 21.4071 0.528562C21.1148 0.518554 20.8224 0.493957 20.5296 0.486868L19.6414 0.516474C19.0497 0.531581 18.4597 0.58158 17.8752 0.666168C17.5816 0.693643 17.2903 0.738497 17.0032 0.800435L16.1312 0.967225C15.5627 1.09649 15.0001 1.2762 14.4426 1.43049C13.9073 1.63897 13.3554 1.8091 12.8423 2.03844C12.5882 2.15311 12.3342 2.27236 12.0806 2.38703L11.6996 2.56132L11.3467 2.76065C10.8775 3.03502 10.3971 3.27394 9.97223 3.57792C9.14041 4.12157 8.36304 4.73005 7.64904 5.39633C7.31377 5.69126 6.99855 6.00416 6.70499 6.33328C6.42371 6.65185 6.15352 6.96083 5.89949 7.25063C5.66856 7.56461 5.4524 7.85358 5.24272 8.13253C4.83997 8.68586 4.5693 9.21375 4.29911 9.63365C3.91807 10.4109 3.68113 10.8942 3.62571 10.9988C3.62262 11.0074 3.61891 11.0158 3.61462 11.0238C3.61462 11.0238 3.62571 10.9888 3.64788 10.9288C4.65901 8.12307 6.51899 5.62851 9.01773 3.72684C11.5165 1.82518 14.5544 0.592201 17.7885 0.16717C21.0225 -0.257862 24.3238 0.141987 27.3194 1.32156C30.3149 2.50112 32.8855 4.41339 34.7407 6.84241L34.7389 6.84116Z" fill="white"/>
</g>
</g>
<defs>
<linearGradient id="paint0_linear_202_3507" x1="10.5978" y1="33.873" x2="20.6279" y2="8.19362" gradientUnits="userSpaceOnUse">
<stop stop-color="white"/>
<stop offset="1" stop-color="#B1C1C9"/>
</linearGradient>
<linearGradient id="paint1_linear_202_3507" x1="18.8896" y1="0" x2="18.8896" y2="24.4988" gradientUnits="userSpaceOnUse">
<stop stop-color="#72FFB3"/>
<stop offset="1" stop-color="#2FC875"/>
</linearGradient>
</defs>
</svg>
