<svg width="98" height="40" viewBox="0 0 98 40" fill="none" xmlns="http://www.w3.org/2000/svg">
<path d="M33.2252 22.4812C33.1038 26.3275 31.759 30.0348 29.3862 33.0644C27.0135 36.094 23.7364 38.288 20.0312 39.3274C16.3261 40.3669 12.386 40.1977 8.78362 38.8444C5.18123 37.4911 2.10431 35.0243 0 31.8024L0.00524275 31.7967L0.028117 31.7853C0.0338356 31.7853 0.0338348 31.7796 0.0395533 31.7796C0.0452718 31.7681 0.0509917 31.7681 0.0567102 31.7624L5.81909 27.9977L30.2873 12.003V12.0087C30.3497 12.0997 30.4064 12.1907 30.4636 12.2875C30.6004 12.4981 30.7257 12.7163 30.8505 12.937C30.9702 13.1419 31.0841 13.3468 31.1922 13.5565C31.3576 13.8639 31.5115 14.1827 31.6478 14.502C31.7164 14.644 31.7792 14.7869 31.836 14.9309C31.9271 15.1415 32.0066 15.3464 32.0862 15.5627C32.1491 15.7167 32.2001 15.8758 32.2516 16.0355C32.2992 16.1551 32.3369 16.2738 32.3769 16.3996C32.5304 16.8837 32.6671 17.3736 32.781 17.8745C33.1301 19.384 33.2794 20.9328 33.2252 22.4812Z" fill="url(#paint0_linear_3_51)"/>
<g style="mix-blend-mode:multiply" opacity="0.16">
<g style="mix-blend-mode:multiply" opacity="0.16">
<path d="M32.781 17.8745L0 31.8024L30.2873 12.0039C31.4596 13.7977 32.304 15.7854 32.781 17.8745Z" fill="black"/>
</g>
</g>
<path d="M36.1094 8.19563C36.1111 8.19824 36.1107 8.2017 36.1085 8.20392C36.1073 8.20517 36.1055 8.2058 36.104 8.20659C36.1019 8.20763 36.0997 8.20966 36.0972 8.21167C36.0902 8.21735 36.0815 8.22215 36.0748 8.22828C36.0708 8.23199 36.0663 8.23513 36.0614 8.2376C36.0576 8.23949 36.0538 8.2413 36.0503 8.2436L30.2894 12.0096L6.102 27.8148C5.94662 27.9164 5.73728 27.8734 5.64443 27.7127C3.14438 23.7519 2.28785 18.972 3.25693 14.3895C3.38437 13.7842 3.54215 13.1857 3.72966 12.5962C3.73409 12.587 3.73791 12.5774 3.7411 12.5677C3.74606 12.5403 3.75372 12.5135 3.76397 12.4876C4.80724 9.28106 6.72633 6.43013 9.30449 4.2568C11.8826 2.08347 15.0172 0.674361 18.354 0.18861C21.6908 -0.297141 25.0969 0.159829 28.1878 1.5079C31.2785 2.85598 33.9308 5.04143 35.845 7.81744C35.853 7.82655 35.8605 7.83612 35.8674 7.84604C35.9521 7.95945 36.0317 8.07751 36.1094 8.19563Z" fill="url(#paint1_linear_3_51)"/>
<g style="mix-blend-mode:multiply" opacity="0.25">
<g style="mix-blend-mode:multiply" opacity="0.25">
<path d="M30.4634 12.2884C28.8517 13.4273 26.9784 14.7188 24.9569 16.0865C23.9085 16.7927 22.8334 17.5328 21.7231 18.2619C20.6127 18.991 19.4905 19.7363 18.3692 20.4769C17.236 21.2112 16.1027 21.9403 14.9857 22.6633C13.8696 23.3752 12.765 24.0757 11.7004 24.7529C9.5593 26.1025 7.55447 27.3439 5.81794 28.3861C4.09287 29.4392 2.62511 30.2765 1.61007 30.8798C0.716076 31.404 0.152324 31.7171 0.0269928 31.7853C0.033759 31.7747 0.043804 31.7667 0.0555842 31.7624L30.2861 12.0039C30.3495 12.0949 30.4062 12.1917 30.4634 12.2884Z" fill="black"/>
</g>
</g>
<g style="mix-blend-mode:screen" opacity="0.7">
<g style="mix-blend-mode:screen" opacity="0.7">
<path d="M36.0838 8.21713C36.0769 8.22757 36.0669 8.23558 36.0552 8.24001L5.82035 27.9985C5.75792 27.9032 5.70078 27.8107 5.64407 27.7126C7.2557 26.5793 9.13472 25.2822 11.1557 23.9145C12.2041 23.2083 13.2854 22.4796 14.39 21.7391C15.4947 21.0104 16.6222 20.2647 17.744 19.5241C18.8772 18.7898 20.0104 18.0606 21.1274 17.3377C22.2445 16.6148 23.3482 15.9257 24.4128 15.2481C26.5482 13.8985 28.5587 12.6571 30.2947 11.6092C32.0203 10.556 33.4876 9.72444 34.5031 9.12114C35.3947 8.59837 35.9585 8.28528 36.0838 8.21713Z" fill="white"/>
</g>
</g>
<g style="mix-blend-mode:screen" opacity="0.25">
<g style="mix-blend-mode:screen" opacity="0.25">
<path d="M30.959 21.8545C30.963 22.9607 30.8485 24.0642 30.6173 25.146C30.1959 27.1805 29.3768 29.1118 28.207 30.829C27.0372 32.5462 25.5399 34.0154 23.8008 35.1523C22.0618 36.2893 20.1153 37.0716 18.0731 37.4544C16.031 37.8371 13.9333 37.8128 11.9006 37.3827C8.55926 36.6963 5.53387 34.9367 3.28508 32.3718L3.45044 32.2637L30.959 21.8545Z" fill="white"/>
</g>
</g>
<g style="mix-blend-mode:screen" opacity="0.25">
<g style="mix-blend-mode:screen" opacity="0.25">
<path d="M32.8267 7.63057L32.5022 7.8412L5.4435 15.067C5.45493 14.9989 5.46589 14.9241 5.48305 14.8564C5.90589 12.8215 6.72631 10.89 7.89727 9.17286C9.06819 7.45568 10.5666 5.98654 12.3065 4.8497C14.0465 3.71283 15.9937 2.93064 18.0366 2.54797C20.0795 2.1653 22.1778 2.18969 24.2113 2.61971C27.5514 3.30886 30.576 5.068 32.8267 7.63057Z" fill="white"/>
</g>
</g>
<g style="mix-blend-mode:multiply" opacity="0.16">
<g style="mix-blend-mode:multiply" opacity="0.16">
<path d="M33.2252 22.4814C33.1038 26.3276 31.759 30.035 29.3862 33.0646C27.0135 36.0941 23.7364 38.2881 20.0312 39.3276C16.3261 40.367 12.386 40.1978 8.78362 38.8446C5.18123 37.4913 2.10431 35.0244 0 31.8026C0.575952 32.5612 1.19773 33.2838 1.86186 33.9666C3.19656 35.2966 4.7199 36.4229 6.38284 37.309C8.02978 38.1875 9.80266 38.8059 11.6386 39.1423L13.0168 39.3358C13.4776 39.4158 13.9446 39.393 14.4059 39.4268L15.1007 39.4554L15.7955 39.4216C16.2565 39.4112 16.7164 39.3749 17.1732 39.3129L18.5457 39.1023L19.8895 38.7611C20.3451 38.6658 20.7721 38.4704 21.2105 38.3322C21.6498 38.1867 22.0781 38.0098 22.492 37.8027C23.3346 37.4199 24.147 36.9739 24.9223 36.4684L26.0608 35.6654C26.4196 35.3752 26.767 35.0679 27.1202 34.7657C27.469 34.4588 27.8016 34.1338 28.1166 33.7921L28.6065 33.2913L29.0392 32.7504C29.631 32.028 30.1712 31.2649 30.6561 30.4668L31.3166 29.2254C31.5501 28.8156 31.6869 28.3714 31.8804 27.9445C31.9714 27.7281 32.071 27.5156 32.1539 27.2954L32.3645 26.612C32.4956 26.1565 32.6719 25.6952 32.7686 25.2453C32.9782 24.3344 33.1307 23.4113 33.2252 22.4814Z" fill="black"/>
</g>
</g>
<g style="mix-blend-mode:screen" opacity="0.7">
<g style="mix-blend-mode:screen" opacity="0.7">
<path d="M35.8429 7.81834C35.7953 7.76163 35.7233 7.67538 35.6266 7.56244C35.4498 7.32893 35.15 7.01012 34.7893 6.59458C33.7564 5.49185 32.5983 4.51341 31.3386 3.6791C30.5082 3.12343 29.6343 2.63592 28.7252 2.22134C27.7161 1.76872 26.6703 1.40284 25.5991 1.12767C25.3256 1.05381 25.0182 0.997098 24.7275 0.928475C24.4602 0.866048 24.1528 0.843179 23.8697 0.792188C23.5738 0.752159 23.2831 0.712129 22.9872 0.666857C22.6855 0.632546 22.3896 0.626823 22.0875 0.603948C21.7858 0.592511 21.4842 0.5644 21.182 0.556299L20.2656 0.590133C19.6551 0.607399 19.0464 0.664541 18.4433 0.761213C18.1404 0.792612 17.8398 0.843874 17.5436 0.91466L16.6439 1.10528C16.0573 1.25301 15.4768 1.4584 14.9016 1.63472C14.3493 1.87299 13.7799 2.06742 13.2504 2.32952C12.9883 2.46057 12.7262 2.59686 12.4646 2.72791L12.0714 2.9271L11.7074 3.1549C11.2232 3.46847 10.7276 3.74152 10.2892 4.08892C9.43092 4.71024 8.62884 5.40564 7.89215 6.16712C7.54623 6.50418 7.22099 6.86177 6.9181 7.23791C6.62788 7.60199 6.3491 7.95511 6.087 8.28631C5.84873 8.64515 5.62571 8.97539 5.40936 9.2942C4.99381 9.92658 4.71454 10.5299 4.43576 11.0098C4.04261 11.898 3.79815 12.4504 3.74096 12.57C3.73777 12.5797 3.73395 12.5893 3.72952 12.5986C3.72952 12.5986 3.74096 12.5585 3.76383 12.4899C4.8071 9.28338 6.72619 6.43246 9.30435 4.25913C11.8825 2.0858 15.017 0.676679 18.3538 0.190929C21.6906 -0.294822 25.0968 0.162148 28.1876 1.51023C31.2784 2.8583 33.9306 5.04376 35.8448 7.81977L35.8429 7.81834Z" fill="white"/>
</g>
</g>
<path d="M52.776 29.24C51.416 29.24 50.16 29.072 49.008 28.736C47.872 28.384 46.896 27.904 46.08 27.296L47.04 24.872C47.584 25.256 48.152 25.584 48.744 25.856C49.336 26.112 49.968 26.312 50.64 26.456C51.312 26.584 52.024 26.648 52.776 26.648C54.04 26.648 54.952 26.44 55.512 26.024C56.072 25.608 56.352 25.064 56.352 24.392C56.352 23.8 56.16 23.352 55.776 23.048C55.392 22.728 54.704 22.464 53.712 22.256L51 21.704C49.448 21.384 48.288 20.848 47.52 20.096C46.752 19.344 46.368 18.336 46.368 17.072C46.368 16.016 46.648 15.096 47.208 14.312C47.768 13.528 48.552 12.92 49.56 12.488C50.568 12.056 51.744 11.84 53.088 11.84C54.288 11.84 55.4 12.016 56.424 12.368C57.448 12.704 58.304 13.192 58.992 13.832L58.032 16.136C57.344 15.56 56.592 15.136 55.776 14.864C54.96 14.576 54.048 14.432 53.04 14.432C51.904 14.432 51.016 14.656 50.376 15.104C49.752 15.536 49.44 16.136 49.44 16.904C49.44 17.496 49.632 17.968 50.016 18.32C50.416 18.672 51.088 18.944 52.032 19.136L54.72 19.664C56.32 19.984 57.504 20.512 58.272 21.248C59.04 21.968 59.424 22.944 59.424 24.176C59.424 25.184 59.152 26.072 58.608 26.84C58.064 27.592 57.296 28.184 56.304 28.616C55.312 29.032 54.136 29.24 52.776 29.24ZM62.1008 29V11.336H65.1008V29H62.1008ZM68.3586 29V16.88H71.3586V29H68.3586ZM68.1906 14.6V11.672H71.5266V14.6H68.1906ZM80.1844 29.24C78.9364 29.24 77.8404 28.984 76.8964 28.472C75.9684 27.96 75.2484 27.232 74.7364 26.288C74.2244 25.328 73.9684 24.192 73.9684 22.88C73.9684 21.568 74.2244 20.448 74.7364 19.52C75.2644 18.592 75.9924 17.88 76.9204 17.384C77.8484 16.888 78.9364 16.64 80.1844 16.64C80.9844 16.64 81.7604 16.768 82.5124 17.024C83.2804 17.264 83.9044 17.616 84.3844 18.08L83.4724 20.168C83.0404 19.768 82.5524 19.472 82.0084 19.28C81.4804 19.072 80.9604 18.968 80.4484 18.968C79.3764 18.968 78.5364 19.304 77.9284 19.976C77.3364 20.648 77.0404 21.624 77.0404 22.904C77.0404 24.184 77.3364 25.168 77.9284 25.856C78.5364 26.544 79.3764 26.888 80.4484 26.888C80.9444 26.888 81.4564 26.792 81.9844 26.6C82.5284 26.408 83.0244 26.112 83.4724 25.712L84.3844 27.776C83.8884 28.24 83.2564 28.6 82.4884 28.856C81.7364 29.112 80.9684 29.24 80.1844 29.24ZM92.3318 29.24C90.2998 29.24 88.7078 28.68 87.5558 27.56C86.4038 26.44 85.8278 24.904 85.8278 22.952C85.8278 21.688 86.0758 20.584 86.5718 19.64C87.0678 18.696 87.7558 17.96 88.6358 17.432C89.5318 16.904 90.5718 16.64 91.7558 16.64C92.9238 16.64 93.8998 16.888 94.6838 17.384C95.4678 17.88 96.0598 18.576 96.4598 19.472C96.8758 20.368 97.0838 21.416 97.0838 22.616V23.408H88.2518V21.824H94.9478L94.5398 22.16C94.5398 21.04 94.2998 20.184 93.8198 19.592C93.3558 19 92.6758 18.704 91.7798 18.704C90.7878 18.704 90.0198 19.056 89.4758 19.76C88.9478 20.464 88.6838 21.448 88.6838 22.712V23.024C88.6838 24.336 89.0038 25.32 89.6438 25.976C90.2998 26.616 91.2198 26.936 92.4038 26.936C93.0918 26.936 93.7318 26.848 94.3238 26.672C94.9318 26.48 95.5078 26.176 96.0518 25.76L96.9398 27.776C96.3638 28.24 95.6758 28.6 94.8758 28.856C94.0758 29.112 93.2278 29.24 92.3318 29.24Z" fill="black"/>
<defs>
<linearGradient id="paint0_linear_3_51" x1="10.9347" y1="38.712" x2="23.2614" y2="10.2198" gradientUnits="userSpaceOnUse">
<stop stop-color="white"/>
<stop offset="1" stop-color="#B1C1C9"/>
</linearGradient>
<linearGradient id="paint1_linear_3_51" x1="19.49" y1="0" x2="19.49" y2="27.9986" gradientUnits="userSpaceOnUse">
<stop stop-color="#72FFB3"/>
<stop offset="1" stop-color="#2FC875"/>
</linearGradient>
</defs>
</svg>
